#!OML:ASF F:\VICON\USERDATA\INSTALL\rory3\rory3.ASF
:FULLY-SPECIFIED
:DEGREES
73
root 0.7713990012109357 17.45251406993215 20.730016070254724 -1.9484094714959763 -4.664197305070969 -4.7110378735302705
lfemur -18.217593587343835 -1.4001240822722902 -15.419383967126182
ltibia 32.053412100710965
lfoot -2.1920658144237937 -6.602381897458288
ltoes -12.281109719559002
rfemur 0.2581346366412287 6.293846278662316 30.009813399078233
rtibia 38.3908356011604
rfoot -0.6351973985757597 -11.187251378687709
rtoes 6.311023932042614
lowerback 9.371213608710574 1.8623825264924763 4.896157188196073
upperback -0.13725063175633334 3.3973917400503666 1.220332685381127
thorax -5.443970415384368 1.5945548859576593 -2.3717088514180222
lowerneck -16.039773961518403 -2.8376394778076235 -1.6211540907122584
upperneck 19.6558048902849 -3.533686401294258 0.7877571686705886
head 8.914638744553853 -1.7145304356440811 0.08895510231939385
lclavicle -4.551431261291559e-16 -7.777938162983616e-16
lhumerus -36.6885697374469 5.135867978681087 78.44874732288415
lradius 31.03252436973313
lwrist 9.759811805143666
lhand -28.39153250193974 20.113031006504034
lfingers 7.12502
lthumb -1.8615844020383554 49.69532807302705
rclavicle -4.511137411847244e-16 -7.752002283583722e-16
rhumerus -23.497880086453108 -10.844725572728969 -80.23099233638577
rradius 29.282640181508814
rwrist -0.7522102009903868
rhand -18.942147491999403 23.447679202751207
rfingers 7.12502
rthumb 7.412704888858834 -6.4252200810873665
74
root 0.7656926647284117 17.538491240371815 19.806694566140433 -2.2662451047886556 -4.884434986282377 -4.045986385344893
lfemur -17.112814193837906 -0.8402215816094887 -16.66276240171767
ltibia 31.753652195205007
lfoot -3.2841907637941175 -6.529184856329861
ltoes -12.42851412527997
rfemur 0.4715494842091683 6.389098120583636 28.87554281122117
rtibia 40.91064142204873
rfoot -0.8182849363565596 -10.99975072983201
rtoes 6.4031304443409525
lowerback 9.666956458501483 1.9233760703809324 4.327867154015704
upperback 0.05996473221322219 3.2219978327804846 1.0583211506604242
thorax -5.280349500952442 1.5146161621943746 -2.0253474521381882
lowerneck -16.00121509475805 -2.8679408004908606 -1.6475816599817859
upperneck 19.736546049269922 -3.602076966553292 0.9296468522621654
head 8.94033343133419 -1.7394644176082938 0.09210991225252099
lclavicle -4.540650689006515e-16 -7.76969348275841e-16
lhumerus -36.87316045212035 5.627227961532282 78.34933731383386
lradius 31.24671350442467
lwrist 9.083033754150682
lhand -28.178356034802693 20.301656346539907
lfingers 7.12502
lthumb -1.6804417596583252 49.792743793643965
rclavicle -4.520322349233775e-16 -7.759555489344888e-16
rhumerus -23.27382013297367 -11.317184499382964 -80.20562657142456
rradius 29.554656660580747
rwrist -0.9092234447985508
rhand -19.100606028944117 23.995960260174105
rfingers 7.12502
rthumb 7.302936317660686 -5.819889908791309
75
root 0.822317635157729 17.804907440781182 19.423008466052682 -2.0594607958151476 -6.173374718797095 -2.581574127565572
lfemur -15.67072927818271 -1.518823351877866 -18.44520968296631
ltibia 31.61927935831372
lfoot -4.6259865783511644 -5.378042901667779
ltoes -11.81226767915662
rfemur -0.42441331063810495 6.42451245389407 26.750475802118086
rtibia 44.22988152041406
rfoot -0.9405714874282003 -10.69122002415816
rtoes 6.382700197948105
lowerback 9.623261272804262 2.086343546661822 3.2675799486427914
upperback 0.24796889417980872 3.1218972749827376 0.7972287212721189
thorax -5.0352994697666436 1.4851935767963131 -1.6714716954760076
lowerneck -15.904033951977308 -2.9194745462709633 -1.7167638577589868
upperneck 19.8387088704579 -3.710494618086218 1.116327741229091
head 8.964258917008218 -1.7801433274877763 0.11922793807739067
lclavicle -4.541923084940098e-16 -7.770614542827577e-16
lhumerus -36.99000542043167 6.02826513299137 78.22541550463944
lradius 31.413567621543514
lwrist 8.577400295847303
lhand -27.99527974948079 20.271518332545654
lfingers 7.12502
lthumb -1.522331897614304 49.676640885725455
rclavicle -4.520427255861485e-16 -7.759214733921688e-16
rhumerus -23.371219724303014 -11.936148398975664 -79.97620178957739
rradius 29.494785448559572
rwrist -0.8494048745385632
rhand -19.16395054996976 24.394568280820778
rfingers 7.12502
rthumb 7.246802009329855 -5.479158060138512
76
root 0.8146027961802125 17.938820876222543 16.387987930348416 -2.0240967837648793 -7.439089336125779 -1.6528632062388497
lfemur -14.03010421613385 -2.6362747956240424 -20.050850998927444
ltibia 31.608750934847784
lfoot -4.425662103811462 -5.0698937415125265
ltoes -10.777305423082455
rfemur -3.231764274877552 6.068796850888813 24.929112250269853
rtibia 48.371106993914815
rfoot -0.42645160796456416 -10.39340726991583
rtoes 6.341273286121676
lowerback 9.936757852063977 2.2694905203925333 2.5605568634714957
upperback 0.3096300940681817 3.185849274970465 0.6216968708932035
thorax -4.946122032825799 1.5249783966048835 -1.4689946002992087
lowerneck -15.793332954800695 -2.9650753631490407 -1.7862797000181654
upperneck 19.973097968714956 -3.812373514240454 1.2632088580662173
head 8.992415592222702 -1.8188807144879362 0.14299337065252
lclavicle -4.552765639325573e-16 -7.779096846185578e-16
lhumerus -36.99195166471976 6.296241961770413 78.12802439798556
lradius 31.50544467568972
lwrist 8.38160767022545
lhand -27.867635115470396 20.114047753797067
lfingers 7.12502
lthumb -1.4648830346363761 49.34562938577067
rclavicle -4.524962249686032e-16 -7.763336081006245e-16
rhumerus -23.744667360922115 -12.458715732478058 -79.76392991651099
rradius 29.283158360304974
rwrist -0.556182698022142
rhand -19.13841775117899 24.62316252009563
rfingers 7.12502
rthumb 7.246973233358906 -5.3459937217497595
